<svg width="506" height="227" viewBox="0 0 506 227" fill="none" xmlns="http://www.w3.org/2000/svg">
<path d="M54.3904 147.455C54.3904 146.643 54.7192 145.866 55.3017 145.301L74.0336 127.133C75.1974 126.004 77.0473 126.004 78.211 127.133L96.9429 145.301C97.5255 145.866 97.8543 146.643 97.8543 147.455V223.717C97.8543 225.374 96.5111 226.717 94.8543 226.717H57.3904C55.7335 226.717 54.3904 225.374 54.3904 223.717V147.455Z" fill="#A65C19"/>
<path d="M73.2187 0.931903C74.3903 -0.23967 76.2898 -0.239671 77.4614 0.931902L95.6822 19.1527C96.8538 20.3243 96.8538 22.2238 95.6822 23.3954L24.1974 94.8802C23.0258 96.0518 21.1263 96.0518 19.9547 94.8802L1.7339 76.6594C0.562332 75.4878 0.562331 73.5883 1.7339 72.4167L73.2187 0.931903Z" fill="#71A621"/>
<path d="M73.2187 62.7102C74.3903 61.5387 76.2898 61.5386 77.4614 62.7102L95.6822 80.931C96.8538 82.1026 96.8538 84.0021 95.6822 85.1737L24.1974 156.659C23.0258 157.83 21.1263 157.83 19.9547 156.659L1.7339 138.438C0.562332 137.266 0.562331 135.367 1.7339 134.195L73.2187 62.7102Z" fill="#51732F"/>
<path d="M109.902 31.2854C108.731 30.1138 106.831 30.1138 105.66 31.2854L87.4387 49.5062C86.2672 50.6778 86.2672 52.5773 87.4387 53.7489L128.721 95.0309C129.892 96.2024 131.792 96.2024 132.963 95.0309L151.184 76.81C152.356 75.6385 152.356 73.739 151.184 72.5674L109.902 31.2854Z" fill="#71A621"/>
<path d="M109.902 92.9138C108.731 91.7423 106.831 91.7423 105.66 92.9138L87.4387 111.135C86.2672 112.306 86.2672 114.206 87.4387 115.377L128.721 156.659C129.892 157.831 131.792 157.831 132.963 156.659L151.184 138.438C152.356 137.267 152.356 135.367 151.184 134.196L109.902 92.9138Z" fill="#51732F"/>
<path d="M204.867 225.692C232.947 225.692 232.347 206.492 232.827 203.612C232.947 202.292 233.067 198.572 233.067 195.812C233.067 193.652 231.867 192.452 229.707 192.452H213.627C211.467 192.452 210.387 193.532 210.267 195.692L210.027 200.612C210.027 200.612 210.027 205.892 204.627 205.892C198.507 205.892 198.867 200.612 198.867 200.612V162.212C198.867 162.212 198.507 156.932 204.627 156.932C210.027 156.932 210.027 162.212 210.027 162.212L210.267 165.932C210.387 167.972 211.587 169.172 213.627 169.172H229.707C231.867 169.172 233.067 167.972 233.067 165.812C233.067 163.412 232.947 160.532 232.827 159.212C232.347 156.332 232.947 137.132 204.867 137.132C176.547 137.132 177.027 157.292 176.787 159.212C176.667 160.772 176.547 163.172 176.547 164.852V197.972C176.547 199.652 176.667 202.052 176.787 203.612C177.027 205.532 176.547 225.692 204.867 225.692Z" fill="#71A621"/>
<path d="M246.001 223.412H293.041C295.201 223.412 296.401 222.212 296.401 220.052V205.532C296.401 203.372 295.201 202.172 293.041 202.172H266.641C265.921 202.172 265.441 201.692 265.441 200.972V193.172C265.441 192.452 265.921 191.972 266.641 191.972H283.321C285.481 191.972 286.681 190.772 286.681 188.612V174.092C286.681 171.932 285.481 170.732 283.321 170.732H266.641C265.921 170.732 265.441 170.252 265.441 169.532V161.852C265.441 161.132 265.921 160.652 266.641 160.652H293.041C295.201 160.652 296.401 159.452 296.401 157.292V142.772C296.401 140.612 295.201 139.412 293.041 139.412H246.001C243.841 139.412 242.641 140.612 242.641 142.772V220.052C242.641 222.212 243.841 223.412 246.001 223.412Z" fill="#71A621"/>
<path d="M306.039 223.412H334.119C362.799 223.412 362.319 203.252 362.559 201.332C362.919 198.692 362.799 194.012 362.799 193.772V169.052C362.799 168.812 362.679 162.932 362.559 160.292C362.439 158.372 362.679 139.412 334.119 139.412H309.399C307.239 139.412 306.039 140.612 306.039 142.772C306.039 158.492 306.159 223.412 306.039 223.412ZM328.719 203.372V160.532C328.719 159.812 329.199 159.332 329.919 159.332H334.719C340.479 159.452 340.479 164.492 340.479 164.492V198.332C340.479 198.332 340.479 203.252 334.719 203.372C331.239 203.372 328.719 203.612 328.719 203.372Z" fill="#71A621"/>
<path d="M369.123 223.412H384.363C386.283 223.412 387.483 222.452 388.083 220.652L389.523 215.612C389.763 215.012 390.243 214.652 390.963 214.652H410.763C411.483 214.652 411.963 215.012 412.203 215.612L413.643 220.652C414.243 222.452 415.443 223.412 417.363 223.412H432.603C435.003 223.412 436.083 222.092 435.483 219.692L414.363 142.292C413.883 140.372 412.443 139.412 410.523 139.412H391.203C389.283 139.412 387.843 140.372 387.363 142.292L366.243 219.692C365.643 222.092 366.723 223.412 369.123 223.412ZM394.683 193.652L399.963 172.292C400.203 171.092 401.163 171.212 401.403 172.292L407.043 193.652C407.283 194.492 406.803 194.972 405.963 194.972H395.643C394.803 194.972 394.443 194.492 394.683 193.652Z" fill="#71A621"/>
<path d="M443.735 142.772V220.052C443.735 222.212 444.935 223.412 447.095 223.412H463.415C465.575 223.412 466.775 222.212 466.775 220.052V196.652C466.775 195.932 467.255 195.572 467.975 195.572H468.815C469.415 195.572 469.895 195.932 470.135 196.652L479.735 220.772C480.455 222.572 481.775 223.412 483.695 223.412H502.655C505.175 223.412 506.255 221.852 505.175 219.452L492.335 191.612C492.095 191.012 492.215 190.412 492.815 190.052C498.815 185.852 503.615 178.892 503.615 167.012C503.615 148.892 494.015 139.412 472.175 139.412H447.095C444.935 139.412 443.735 140.612 443.735 142.772ZM466.775 173.732V160.052C466.775 159.332 467.255 158.852 467.975 158.852H473.615C479.615 158.852 481.895 162.812 481.895 167.372C481.895 172.052 479.015 174.932 474.095 174.932H467.975C467.255 174.932 466.775 174.452 466.775 173.732Z" fill="#71A621"/>
</svg>
